{
    "asset": {
        "generator": "Khronos glTF Blender I/O v3.6.27",
        "version": "2.0"
    },
    "scene": 0,
    "scenes": [
        {
            "name": "Scene",
            "nodes": [
                0
            ]
        }
    ],
    "nodes": [
        {
            "mesh": 0,
            "name": "wd5lcfcaa_LOD0_TIER2_000",
            "rotation": [
                0.7071068286895752,
                0,
                0,
                0.7071068286895752
            ],
            "scale": [
                0.009999999776482582,
                0.009999999776482582,
                0.009999999776482582
            ]
        }
    ],
    "materials": [
        {
            "doubleSided": true,
            "name": "MI_wd5lcfcaa",
            "normalTexture": {
                "index": 0
            },
            "occlusionTexture": {
                "index": 1
            },
            "pbrMetallicRoughness": {
                "baseColorTexture": {
                    "index": 2
                },
                "metallicRoughnessTexture": {
                    "index": 1
                }
            }
        }
    ],
    "meshes": [
        {
            "name": "S_wd5lcfcaa_tier_2",
            "primitives": [
                {
                    "attributes": {
                        "POSITION": 0,
                        "NORMAL": 1,
                        "TEXCOORD_0": 2,
                        "TANGENT": 3
                    },
                    "indices": 4,
                    "material": 0
                }
            ]
        }
    ],
    "textures": [
        {
            "sampler": 0,
            "source": 0
        },
        {
            "sampler": 0,
            "source": 1
        },
        {
            "sampler": 0,
            "source": 2
        }
    ],
    "images": [
        {
            "mimeType": "image/png",
            "name": "T_wd5lcfcaa_2K_N",
            "uri": "Textures/T_wd5lcfcaa_2K_N.png"
        },
        {
            "mimeType": "image/png",
            "name": "T_wd5lcfcaa_2K_ORM",
            "uri": "Textures/T_wd5lcfcaa_2K_ORM.png",
            "extras": {
                "compression": "mask"
            }
        },
        {
            "mimeType": "image/png",
            "name": "T_wd5lcfcaa_2K_B",
            "uri": "Textures/T_wd5lcfcaa_2K_B.png"
        }
    ],
    "accessors": [
        {
            "bufferView": 0,
            "componentType": 5126,
            "count": 1216,
            "max": [
                5.977838039398193,
                2.3702354431152344,
                1.8314461708068848
            ],
            "min": [
                -7.034572124481201,
                -3.1769134998321533,
                -2.4209389686584473
            ],
            "type": "VEC3"
        },
        {
            "bufferView": 1,
            "componentType": 5126,
            "count": 1216,
            "type": "VEC3"
        },
        {
            "bufferView": 2,
            "componentType": 5126,
            "count": 1216,
            "type": "VEC2"
        },
        {
            "bufferView": 3,
            "componentType": 5126,
            "count": 1216,
            "type": "VEC4"
        },
        {
            "bufferView": 4,
            "componentType": 5123,
            "count": 5442,
            "type": "SCALAR"
        }
    ],
    "bufferViews": [
        {
            "buffer": 0,
            "byteLength": 14592,
            "byteOffset": 0,
            "target": 34962
        },
        {
            "buffer": 0,
            "byteLength": 14592,
            "byteOffset": 14592,
            "target": 34962
        },
        {
            "buffer": 0,
            "byteLength": 9728,
            "byteOffset": 29184,
            "target": 34962
        },
        {
            "buffer": 0,
            "byteLength": 19456,
            "byteOffset": 38912,
            "target": 34962
        },
        {
            "buffer": 0,
            "byteLength": 10884,
            "byteOffset": 58368,
            "target": 34963
        }
    ],
    "samplers": [
        {
            "magFilter": 9729,
            "minFilter": 9987
        }
    ],
    "buffers": [
        {
            "byteLength": 69252,
            "uri": "wd5lcfcaa_tier_2.bin"
        }
    ]
}