{
    "asset": {
        "generator": "Khronos glTF Blender I/O v3.6.27",
        "version": "2.0"
    },
    "scene": 0,
    "scenes": [
        {
            "name": "Scene",
            "nodes": [
                0
            ]
        }
    ],
    "nodes": [
        {
            "mesh": 0,
            "name": "wd5lcfcaa_LOD0_TIER1_000",
            "rotation": [
                0.7071068286895752,
                0,
                0,
                0.7071068286895752
            ],
            "scale": [
                0.009999999776482582,
                0.009999999776482582,
                0.009999999776482582
            ]
        }
    ],
    "materials": [
        {
            "doubleSided": true,
            "name": "MI_wd5lcfcaa",
            "normalTexture": {
                "index": 0
            },
            "occlusionTexture": {
                "index": 1
            },
            "pbrMetallicRoughness": {
                "baseColorTexture": {
                    "index": 2
                },
                "metallicRoughnessTexture": {
                    "index": 1
                }
            }
        }
    ],
    "meshes": [
        {
            "name": "S_wd5lcfcaa_tier_1",
            "primitives": [
                {
                    "attributes": {
                        "POSITION": 0,
                        "NORMAL": 1,
                        "TEXCOORD_0": 2,
                        "TANGENT": 3
                    },
                    "indices": 4,
                    "material": 0
                }
            ]
        }
    ],
    "textures": [
        {
            "sampler": 0,
            "source": 0
        },
        {
            "sampler": 0,
            "source": 1
        },
        {
            "sampler": 0,
            "source": 2
        },
        {
            "sampler": 0,
            "source": 3
        }
    ],
    "images": [
        {
            "mimeType": "image/png",
            "name": "T_wd5lcfcaa_4K_N",
            "uri": "Textures/T_wd5lcfcaa_4K_N.png"
        },
        {
            "mimeType": "image/png",
            "name": "T_wd5lcfcaa_4K_ORM",
            "uri": "Textures/T_wd5lcfcaa_4K_ORM.png",
            "extras": {
                "compression": "mask"
            }
        },
        {
            "mimeType": "image/png",
            "name": "T_wd5lcfcaa_4K_B",
            "uri": "Textures/T_wd5lcfcaa_4K_B.png"
        },
        {
            "mimeType": "image/png",
            "name": "T_wd5lcfcaa_4K_H",
            "uri": "Textures/T_wd5lcfcaa_4K_H.png",
            "extras": {
                "textureSlot": "HeightTexture",
                "compression": "displacement"
            }
        }
    ],
    "accessors": [
        {
            "bufferView": 0,
            "componentType": 5126,
            "count": 3454,
            "max": [
                5.9791436195373535,
                2.3633968830108643,
                1.8285027742385864
            ],
            "min": [
                -7.020855903625488,
                -3.1827352046966553,
                -2.418806791305542
            ],
            "type": "VEC3"
        },
        {
            "bufferView": 1,
            "componentType": 5126,
            "count": 3454,
            "type": "VEC3"
        },
        {
            "bufferView": 2,
            "componentType": 5126,
            "count": 3454,
            "type": "VEC2"
        },
        {
            "bufferView": 3,
            "componentType": 5126,
            "count": 3454,
            "type": "VEC4"
        },
        {
            "bufferView": 4,
            "componentType": 5123,
            "count": 18306,
            "type": "SCALAR"
        }
    ],
    "bufferViews": [
        {
            "buffer": 0,
            "byteLength": 41448,
            "byteOffset": 0,
            "target": 34962
        },
        {
            "buffer": 0,
            "byteLength": 41448,
            "byteOffset": 41448,
            "target": 34962
        },
        {
            "buffer": 0,
            "byteLength": 27632,
            "byteOffset": 82896,
            "target": 34962
        },
        {
            "buffer": 0,
            "byteLength": 55264,
            "byteOffset": 110528,
            "target": 34962
        },
        {
            "buffer": 0,
            "byteLength": 36612,
            "byteOffset": 165792,
            "target": 34963
        }
    ],
    "samplers": [
        {
            "magFilter": 9729,
            "minFilter": 9987
        }
    ],
    "buffers": [
        {
            "byteLength": 202404,
            "uri": "wd5lcfcaa_tier_1.bin"
        }
    ]
}